<svg id="Layer_1" data-name="Layer 1" xmlns="http://www.w3.org/2000/svg" viewBox="0 0 128 128"><title>SMS</title><path d="M95.167,0H32.833a5.757,5.757,0,0,0-5.75,5.75v116.5a5.757,5.757,0,0,0,5.75,5.75H95.167a5.757,5.757,0,0,0,5.75-5.75V5.75A5.757,5.757,0,0,0,95.167,0ZM30.583,5.75a2.252,2.252,0,0,1,2.25-2.25H95.167a2.252,2.252,0,0,1,2.25,2.25V14.1H30.583ZM97.417,17.6v88.162H30.583V17.6Zm0,104.646a2.252,2.252,0,0,1-2.25,2.25H32.833a2.252,2.252,0,0,1-2.25-2.25V109.267H97.417Z"/><path d="M68.75,7.052h-9.5a1.75,1.75,0,1,0,0,3.5h9.5a1.75,1.75,0,1,0,0-3.5Z"/><path d="M81.792,7.052H78.458a1.75,1.75,0,1,0,0,3.5h3.333a1.75,1.75,0,1,0,0-3.5Z"/><path d="M55.625,121.642h16.75a3.754,3.754,0,0,0,3.75-3.75v-2.017a3.754,3.754,0,0,0-3.75-3.75H55.625a3.754,3.754,0,0,0-3.75,3.75v2.017A3.754,3.754,0,0,0,55.625,121.642Zm-.25-5.767a.25.25,0,0,1,.25-.25h16.75a.25.25,0,0,1,.25.25v2.017a.25.25,0,0,1-.25.25H55.625a.25.25,0,0,1-.25-.25Z"/><path d="M91.531,88.173l-7.2-3.243V81.281a1.75,1.75,0,0,0-1.75-1.75H45.4a1.75,1.75,0,0,0-1.75,1.75V98.256a1.75,1.75,0,0,0,1.75,1.75H82.583a1.75,1.75,0,0,0,1.75-1.75V94.608l7.2-3.244a1.75,1.75,0,0,0,0-3.191Zm-9.667,3.708a1.75,1.75,0,0,0-1.031,1.6v3.029H47.15V83.031H80.833v3.029a1.75,1.75,0,0,0,1.031,1.6l4.688,2.112Z"/><path d="M36.468,65.957l7.2,3.244v3.648a1.75,1.75,0,0,0,1.75,1.75H70.8a1.75,1.75,0,0,0,1.75-1.75V55.874a1.75,1.75,0,0,0-1.75-1.75H45.417a1.75,1.75,0,0,0-1.75,1.75v3.648l-7.2,3.244a1.751,1.751,0,0,0,0,3.191Zm9.667-3.708a1.75,1.75,0,0,0,1.031-1.6V57.624H69.05V71.1H47.167V68.07a1.75,1.75,0,0,0-1.031-1.6l-4.689-2.113Z"/><path d="M45.4,49.191H82.583a1.75,1.75,0,0,0,1.75-1.75V43.793l7.2-3.243a1.75,1.75,0,0,0,0-3.191l-7.2-3.244V30.466a1.75,1.75,0,0,0-1.75-1.75H45.4a1.75,1.75,0,0,0-1.75,1.75V47.441A1.75,1.75,0,0,0,45.4,49.191Zm1.75-16.975H80.833v3.029a1.75,1.75,0,0,0,1.031,1.6l4.688,2.113-4.688,2.112a1.75,1.75,0,0,0-1.031,1.6v3.029H47.15Z"/></svg>