<svg xmlns="http://www.w3.org/2000/svg" width="128" height="128" viewBox="0 0 128 128">
  <title>Login</title>
  <path d="M114,15.25H14A9.761,9.761,0,0,0,4.25,25v77A10.762,10.762,0,0,0,15,112.75h98A10.762,10.762,0,0,0,123.75,102V25A9.761,9.761,0,0,0,114,15.25ZM120.25,25V36.683H52.888L61.37,18.75H114A6.257,6.257,0,0,1,120.25,25ZM14,18.75H57.5L49.016,36.683H7.75V25A6.257,6.257,0,0,1,14,18.75Zm99,90.5H15A7.258,7.258,0,0,1,7.75,102V40.183h112.5V102A7.258,7.258,0,0,1,113,109.25Z"/>
  <path d="M21.57,33.466a5.75,5.75,0,1,0-5.75-5.75A5.756,5.756,0,0,0,21.57,33.466Zm0-8a2.25,2.25,0,1,1-2.25,2.25A2.253,2.253,0,0,1,21.57,25.466Z"/>
  <path d="M37.626,33.466a5.75,5.75,0,1,0-5.75-5.75A5.756,5.756,0,0,0,37.626,33.466Zm0-8a2.25,2.25,0,1,1-2.25,2.25A2.253,2.253,0,0,1,37.626,25.466Z"/>
  <path d="M67.522,29.466h44.745a1.75,1.75,0,0,0,0-3.5H67.522a1.75,1.75,0,0,0,0,3.5Z"/>
  <path d="M64,65.633a6.842,6.842,0,1,0-6.842-6.841A6.85,6.85,0,0,0,64,65.633ZM64,55.45a3.342,3.342,0,1,1-3.342,3.342A3.346,3.346,0,0,1,64,55.45Z"/>
  <path d="M49.1,77.945a19.674,19.674,0,0,0,29.8,0,1.733,1.733,0,0,0,.283-.312,19.75,19.75,0,1,0-30.362,0A1.733,1.733,0,0,0,49.1,77.945Zm3.425-1.43a15.425,15.425,0,0,1,22.946,0,16.221,16.221,0,0,1-22.946,0ZM64,48.769a16.222,16.222,0,0,1,13.7,24.95,19.042,19.042,0,0,0-27.4,0A16.222,16.222,0,0,1,64,48.769Z"/>
  <path d="M95.5,89.253h-63A1.751,1.751,0,0,0,30.75,91v10.858a1.751,1.751,0,0,0,1.75,1.75h63a1.751,1.751,0,0,0,1.75-1.75V91A1.751,1.751,0,0,0,95.5,89.253ZM34.25,100.111V92.753h7.358v7.358Zm59.5,0H45.108V92.753H93.75Z"/>
</svg>
