<svg xmlns="http://www.w3.org/2000/svg" viewBox="0 0 64 64"><g id="_20-safe" data-name="20-safe"><path d="M62.41,51.59A1.955,1.955,0,0,1,63,53a2.006,2.006,0,0,1-2,2H3a1.955,1.955,0,0,1-1.41-.59A1.955,1.955,0,0,1,1,53a2.006,2.006,0,0,1,2-2H61A1.955,1.955,0,0,1,62.41,51.59Z" style="fill:#966857"/><path d="M3,53H61a1.987,1.987,0,0,1,1.721,1A2,2,0,0,0,61,51H3a2.006,2.006,0,0,0-2,2,1.963,1.963,0,0,0,.279,1A2,2,0,0,1,3,53Z" style="fill:#966857"/><polygon points="56 21.24 32 8 8 21.24 3 24 3 19 11 14.59 19 10.17 32 3 61 19 61 24 56 21.24" style="fill:#ff936b"/><polygon points="32 5 8 18.24 3 21 3 24 8 21.24 32 8 56 21.24 61 24 61 21 56 18.24 32 5" style="fill:#ff7045"/><path d="M56,21.24V51H26V25H12V51H8V21.24L32,8ZM52,35V27a2.006,2.006,0,0,0-2-2H32a2.006,2.006,0,0,0-2,2v8a2.006,2.006,0,0,0,2,2H50A2.006,2.006,0,0,0,52,35Z" style="fill:#f7f7f7"/><polygon points="32 8 8 21.24 8 25.24 32 12 56 25.24 56 21.24 32 8" style="fill:#cfcfcf"/><path d="M52,31v4a2.006,2.006,0,0,1-2,2H43V31Z" style="fill:#a3d4ff"/><path d="M52,27v4H43V25h7A2.006,2.006,0,0,1,52,27Z" style="fill:#65b1fc"/><polygon points="43 31 43 37 39 37 39 31 39 25 43 25 43 31" style="fill:#b2876d"/><polygon points="43 31 43 37 41 37 41 31 41 25 43 25 43 31" style="fill:#966857"/><path d="M39,31v6H32a2.006,2.006,0,0,1-2-2V31Z" style="fill:#65b1fc"/><path d="M39,25v6H30V27a2.006,2.006,0,0,1,2-2Z" style="fill:#a3d4ff"/><rect x="12" y="25" width="14" height="26" style="fill:#f2d1a5"/><path d="M12,25v3h7a4,4,0,0,1,4,4V51h3V25Z" style="fill:#f2bb88"/><polygon points="20 1 20 5 19 5 11 5 10 5 10 1 20 1" style="fill:#ff936b"/><polygon points="20 3 20 5 19 5 11 5 10 5 10 3 20 3" style="fill:#ff7045"/><polygon points="19 5 19 10.17 11 14.59 11 5 19 5" style="fill:#b2876d"/><rect x="11" y="5" width="8" height="3" style="fill:#966857"/><path d="M63,51s-2,7-12,12C41,58,39,51,39,51V43a6,6,0,0,0,6-6H57a6,6,0,0,0,6,6Z" style="fill:#d2eb5a"/><path d="M57,37H54a6,6,0,0,0,6,6v8s-1.807,6.281-10.5,11.193c.482.273.974.544,1.5.807,10-5,12-12,12-12V43A6,6,0,0,1,57,37Z" style="fill:#b4d241"/><rect x="47" y="48" width="8" height="6" style="fill:#65b1fc"/><path d="M55,48H53V46a2,2,0,0,0-4,0v2H47V46a4,4,0,0,1,8,0Z" style="fill:#f2f6fc"/><rect x="50" y="48" width="2" height="3" style="fill:#4a98f7"/><path d="M27,25a1,1,0,0,0-1-1H12a1,1,0,0,0-1,1V50H9V21.832L32,9.143,55,21.832V34h2V22.936l3.517,1.94A1,1,0,0,0,62,24V19a1,1,0,0,0-.517-.876l-29-16a1,1,0,0,0-.966,0L20,8.478V6a1,1,0,0,0,1-1V1a1,1,0,0,0-1-1H10A1,1,0,0,0,9,1V5a1,1,0,0,0,1,1v8L2.517,18.124A1,1,0,0,0,2,19v5a1,1,0,0,0,1.483.876L7,22.936V50H3a3,3,0,0,0,0,6H36V54H3a1,1,0,0,1,0-2H36V50H27ZM11,2h8V4H11Zm1,4h6V9.582l-6,3.31ZM4,19.591,32,4.143,60,19.591v2.716L32.483,7.124a1,1,0,0,0-.966,0L4,22.307ZM13,50V26H25V50Z"/><path d="M31,35V32h7v2h2V26h2v8h2V32h7v2h2V27a3,3,0,0,0-3-3H32a3,3,0,0,0-3,3v8a3,3,0,0,0,3,3h4V36H32A1,1,0,0,1,31,35Zm20-8v3H44V26h6A1,1,0,0,1,51,27ZM32,26h6v4H31V27A1,1,0,0,1,32,26Z"/><path d="M63,42a5.006,5.006,0,0,1-5-5,1,1,0,0,0-1-1H45a1,1,0,0,0-1,1,5.006,5.006,0,0,1-5,5,1,1,0,0,0-1,1v8a.97.97,0,0,0,.039.274c.086.3,2.238,7.483,12.514,12.621a1,1,0,0,0,.894,0c10.276-5.138,12.428-12.317,12.514-12.621A.97.97,0,0,0,64,51V43A1,1,0,0,0,63,42Zm-1,8.844c-.308.893-2.573,6.662-11,11.034-8.379-4.35-10.688-10.15-11-11.037V43.929A7.016,7.016,0,0,0,45.929,38H56.071A7.016,7.016,0,0,0,62,43.929Z"/><path d="M55,47V46a4,4,0,0,0-8,0v1a1,1,0,0,0-1,1v6a1,1,0,0,0,1,1h8a1,1,0,0,0,1-1V48A1,1,0,0,0,55,47Zm-6-1a2,2,0,0,1,4,0v1H49Zm5,7H48V49h2v2h2V49h2Z"/></g></svg>