<?xml version="1.0" encoding="utf-8"?>
<!-- Generator: Adobe Illustrator 24.3.0, SVG Export Plug-In . SVG Version: 6.00 Build 0)  -->
<svg version="1.1" id="Layer_1" xmlns="http://www.w3.org/2000/svg" xmlns:xlink="http://www.w3.org/1999/xlink" x="0px" y="0px"
	 viewBox="0 0 300 300" enable-background="new 0 0 300 300" xml:space="preserve">
<g>
	<g>
		<g>
			<polygon fill="#C1C1C1" points="85.439,53.158 85.439,246.842 58.538,246.842 58.538,20.877 214.561,20.877 214.561,53.158 			
				"/>
		</g>
		<g>
			<rect x="85.439" y="53.158" fill="#E5E5E4" width="156.023" height="225.964"/>
		</g>
		<g>
			<rect x="106.959" y="80.059" fill="#C1C1C1" width="59.181" height="10.76"/>
		</g>
		<g>
			<rect x="106.959" y="101.579" fill="#C1C1C1" width="96.842" height="10.76"/>
		</g>
		<g>
			<rect x="106.959" y="123.1" fill="#C1C1C1" width="48.421" height="10.76"/>
		</g>
		<g>
			<rect x="171.52" y="123.1" fill="#C1C1C1" width="48.421" height="10.76"/>
		</g>
		<g>
			<rect x="106.959" y="144.62" fill="#C1C1C1" width="48.421" height="10.76"/>
		</g>
		<g>
			<rect x="171.52" y="144.62" fill="#C1C1C1" width="48.421" height="10.76"/>
		</g>
		<g>
			<circle fill="#FFDA88" cx="179.591" cy="217.251" r="40.351"/>
		</g>
		<g>
			<path fill="#FFE2A9" d="M150,217.251c0-20.459,15.234-37.314,34.971-39.952c-1.765-0.236-3.552-0.399-5.38-0.399
				c-22.288,0-40.351,18.063-40.351,40.351c0,22.288,18.063,40.351,40.351,40.351c1.828,0,3.615-0.163,5.38-0.399
				C165.234,254.565,150,237.71,150,217.251z"/>
		</g>
		<g>
			<path fill="#7FD3B9" d="M191.954,220.798c-0.978-1.716-2.181-3.055-3.62-4.038c-1.44-0.969-3.568-2.059-6.381-3.25
				c-3.846-1.545-5.758-3.384-5.758-5.499c0-1.072,0.37-1.994,1.108-2.777c0.743-0.756,1.629-1.156,2.651-1.156
				c1.334,0,3.523,0.901,6.549,2.69l4.35-6.833c-1.855-2.69-5.653-4.04-8.572-4.135v-3.071c0-1.595-1.881-2.887-5.38-2.887
				c-3.499,0-5.38,1.292-5.38,2.887v3.538c0,0-1.245,0.593-3.425,2.861c-2.391,2.475-2.606,6.649-2.606,9.513
				c0,5.74,4.902,8.215,6.037,9.076c1.132,0.862,3.045,1.868,5.296,2.842c4.629,1.981,6.798,3.547,6.798,5.79
				c0,1.08-0.483,2.122-1.505,3.11c-1.027,0.993-2.08,1.411-3.191,1.492c-3.134,0.218-5.714-1.984-9.318-4.639l-5.343,6.788
				c3.302,3.906,7.258,5.674,7.258,5.756v2.884c0,1.6,2.327,2.888,5.38,2.888c2.869,0,5.38-1.287,5.38-2.888v-2.884
				c0-0.037,3.846-0.536,6.562-2.879c2.677-2.312,4.6-5.893,4.6-9.573C193.443,224.391,192.923,222.531,191.954,220.798z"/>
		</g>
		<g>
			<rect x="58.538" y="20.877" fill="#D6D6D6" width="10.76" height="225.965"/>
		</g>
		<g>
			<rect x="85.439" y="53.158" fill="#EFEFEF" width="10.76" height="225.964"/>
		</g>
	</g>
	<g>
		<g>
			<rect x="106.959" y="80.059" fill="#161616" width="59.181" height="10.76"/>
		</g>
		<g>
			<rect x="106.959" y="101.579" fill="#161616" width="96.842" height="10.76"/>
		</g>
		<g>
			<rect x="106.959" y="123.1" fill="#161616" width="48.421" height="10.76"/>
		</g>
		<g>
			<rect x="171.52" y="123.1" fill="#161616" width="48.421" height="10.76"/>
		</g>
		<g>
			<rect x="106.959" y="144.62" fill="#161616" width="48.421" height="10.76"/>
		</g>
		<g>
			<rect x="171.52" y="144.62" fill="#161616" width="48.421" height="10.76"/>
		</g>
		<g>
			<path fill="#161616" d="M191.954,220.798c-0.978-1.716-2.181-3.055-3.62-4.038c-1.44-0.969-3.568-2.059-6.381-3.25
				c-3.846-1.545-5.758-3.384-5.758-5.499c0-1.072,0.37-1.994,1.108-2.777c0.743-0.756,1.629-1.156,2.651-1.156
				c1.334,0,3.523,0.901,6.549,2.69l4.35-6.833c-1.855-2.69-5.653-4.04-8.572-4.135v-3.071c0-1.595-1.881-2.887-5.38-2.887
				c-3.499,0-5.38,1.292-5.38,2.887v3.538c0,0-1.245,0.593-3.425,2.861c-2.391,2.475-2.606,6.649-2.606,9.513
				c0,5.74,4.902,8.215,6.037,9.076c1.132,0.862,3.045,1.868,5.296,2.842c4.629,1.981,6.798,3.547,6.798,5.79
				c0,1.08-0.483,2.122-1.505,3.11c-1.027,0.993-2.08,1.411-3.191,1.492c-3.134,0.218-5.714-1.984-9.318-4.639l-5.343,6.788
				c3.302,3.906,7.258,5.674,7.258,5.756v2.884c0,1.6,2.327,2.888,5.38,2.888c2.869,0,5.38-1.287,5.38-2.888v-2.884
				c0-0.037,3.846-0.536,6.562-2.879c2.677-2.312,4.6-5.893,4.6-9.573C193.443,224.391,192.923,222.531,191.954,220.798z"/>
		</g>
		<g>
			<path fill="#161616" d="M179.591,262.982c-25.217,0-45.731-20.514-45.731-45.731c0-25.217,20.514-45.731,45.731-45.731
				c25.217,0,45.731,20.514,45.731,45.731C225.322,242.468,204.807,262.982,179.591,262.982z M179.591,182.281
				c-19.282,0-34.971,15.688-34.971,34.971s15.688,34.971,34.971,34.971c19.282,0,34.971-15.688,34.971-34.971
				S198.873,182.281,179.591,182.281z"/>
		</g>
		<g>
			<path fill="#161616" d="M85.439,252.222H58.538c-2.971,0-5.38-2.409-5.38-5.38v-43.041c0-2.971,2.409-5.38,5.38-5.38
				c2.971,0,5.38,2.409,5.38,5.38v37.661h16.14V53.158c0-2.971,2.409-5.38,5.38-5.38h123.742V26.258H63.918v156.023
				c0,2.971-2.409,5.38-5.38,5.38c-2.971,0-5.38-2.409-5.38-5.38V20.877c0-2.971,2.409-5.38,5.38-5.38h156.023
				c2.971,0,5.38,2.409,5.38,5.38v32.281c0,2.971-2.409,5.38-5.38,5.38H90.819v188.304C90.819,249.813,88.41,252.222,85.439,252.222
				z"/>
		</g>
		<g>
			<path fill="#161616" d="M241.462,284.503h-16.14c-2.971,0-5.38-2.409-5.38-5.38c0-2.971,2.409-5.38,5.38-5.38h10.76V58.538
				H90.819v215.204h112.982c2.971,0,5.38,2.409,5.38,5.38c0,2.971-2.409,5.38-5.38,5.38H85.439c-2.971,0-5.38-2.409-5.38-5.38
				V53.158c0-2.971,2.409-5.38,5.38-5.38h156.023c2.971,0,5.38,2.409,5.38,5.38v225.964
				C246.842,282.094,244.433,284.503,241.462,284.503z"/>
		</g>
	</g>
</g>
</svg>
