<svg xmlns="http://www.w3.org/2000/svg" viewBox="0 0 512 512"><title>Artboard 168</title><g id="Document"><rect x="42.66667" y="42.66667" width="426.66667" height="362.66667" rx="42.66667" ry="42.66667" style="fill:#ffa300"/><path d="M426.66667,42.66667H96A10.66667,10.66667,0,1,0,96,64H426.66667A21.35757,21.35757,0,0,1,448,85.33333V96a10.66666,10.66666,0,1,0,21.33333,0V85.33333a42.66627,42.66627,0,0,0-42.66666-42.66666Z" style="fill:gold"/><rect x="64" y="64" width="42.66667" height="64" rx="21.33331" ry="21.33331" style="fill:#f98b00"/><rect x="405.33333" y="85.33333" width="42.66667" height="320" rx="21.33331" ry="21.33331" style="fill:#f98b00"/><rect x="128" y="42.66667" width="21.33333" height="85.33333" rx="10.66666" ry="10.66666" style="fill:#ffa300"/><rect x="170.66667" y="42.66667" width="21.33333" height="85.33333" rx="10.66666" ry="10.66666" style="fill:#ffa300"/><rect x="64" y="64" width="341.33333" height="362.66667" rx="42.66667" ry="42.66667" style="fill:#b8c2ff"/><rect x="85.33333" y="85.33333" width="341.33333" height="362.66667" rx="42.66667" ry="42.66667" style="fill:#ccd4ff"/><rect x="106.66667" y="106.66667" width="341.33333" height="362.66667" rx="42.66667" ry="42.66667" style="fill:#dfe5ff"/><rect x="362.66667" y="128" width="42.66667" height="320" rx="21.33331" ry="21.33331" style="fill:#ccd4ff"/><rect x="362.66667" y="320" width="85.33333" height="42.66667" rx="21.33331" ry="21.33331" style="fill:#ccd4ff"/><path d="M341.33333,128h-256A42.6671,42.6671,0,0,1,42.66667,85.33333V448a42.66711,42.66711,0,0,0,42.66666,42.66667h256A42.66711,42.66711,0,0,0,384,448V170.66667A42.66627,42.66627,0,0,0,341.33333,128Z" style="fill:#ffea21"/><path d="M341.33333,128H96a10.66667,10.66667,0,1,0,0,21.33333H341.33333a21.35758,21.35758,0,0,1,21.33334,21.33334v32a10.66666,10.66666,0,0,0,21.33333,0v-32A42.66627,42.66627,0,0,0,341.33333,128Z" style="fill:#fffc74"/><rect x="85.33333" y="149.33333" width="21.33333" height="341.33333" rx="10.66666" ry="10.66666" style="fill:gold"/><rect x="128" y="149.33333" width="21.33333" height="341.33333" rx="10.66666" ry="10.66666" style="fill:gold"/><rect x="106.66667" y="149.33333" width="21.33333" height="341.33333" rx="10.66666" ry="10.66666" style="fill:#fffc74"/><rect x="149.33333" y="149.33333" width="21.33333" height="341.33333" rx="10.66666" ry="10.66666" style="fill:#fffc74"/><path d="M362.66667,362.66667a21.30083,21.30083,0,0,1-14.27084-5.47917l-213.33333-192a21.331,21.331,0,1,1,28.54167-31.70833l213.33333,192a21.33317,21.33317,0,0,1-14.27083,37.1875Z" style="fill:gold"/><path d="M469.33333,341.33333H400.375a63.87637,63.87637,0,0,1-42.83333-16.4375L170.52083,156.5625A64.02482,64.02482,0,0,1,149.33333,109V42.66667a21.33333,21.33333,0,1,1,42.66667,0V109a21.29086,21.29086,0,0,0,7.04167,15.83333L386.10417,293.1875a21.21475,21.21475,0,0,0,14.27083,5.47917h68.95833a21.33333,21.33333,0,1,1,0,42.66666Z" style="fill:#14a142"/><path d="M384,341.33333a21.30084,21.30084,0,0,1-14.27083-5.47916l-213.33334-192a21.331,21.331,0,0,1,28.54167-31.70834l213.33333,192A21.33317,21.33317,0,0,1,384,341.33333Z" style="fill:#4cc66e"/><path d="M298.66667,264.54167a21.30083,21.30083,0,0,1-14.27084-5.47917l-64-57.60417A21.331,21.331,0,1,1,248.9375,169.75l64,57.60417a21.33317,21.33317,0,0,1-14.27083,37.1875Z" style="fill:#84d89c"/></g></svg>